<?xml version="1.0" encoding="UTF-8" standalone="no"?>
<svg
   xmlns:dc="http://purl.org/dc/elements/1.1/"
   xmlns:cc="http://creativecommons.org/ns#"
   xmlns:rdf="http://www.w3.org/1999/02/22-rdf-syntax-ns#"
   xmlns:svg="http://www.w3.org/2000/svg"
   xmlns="http://www.w3.org/2000/svg"
   xmlns:sodipodi="http://sodipodi.sourceforge.net/DTD/sodipodi-0.dtd"
   xmlns:inkscape="http://www.inkscape.org/namespaces/inkscape"
   width="100%"
   height="100%"
   viewBox="0 0 237 237"
   version="1.1"
   xml:space="preserve"
   style="fill-rule:evenodd;clip-rule:evenodd;stroke-linecap:round;stroke-linejoin:round;stroke-miterlimit:1.5;"
   id="svg20"
   sodipodi:docname="constrjs-logo-web.svg"
   inkscape:version="0.92.3 (2405546, 2018-03-11)"><metadata
     id="metadata26"><rdf:RDF><cc:Work
         rdf:about=""><dc:format>image/svg+xml</dc:format><dc:type
           rdf:resource="http://purl.org/dc/dcmitype/StillImage" /><dc:title></dc:title></cc:Work></rdf:RDF></metadata><defs
     id="defs24" /><sodipodi:namedview
     pagecolor="#ffffff"
     bordercolor="#666666"
     borderopacity="1"
     objecttolerance="10"
     gridtolerance="10"
     guidetolerance="10"
     inkscape:pageopacity="0"
     inkscape:pageshadow="2"
     inkscape:window-width="1366"
     inkscape:window-height="705"
     id="namedview22"
     showgrid="false"
     inkscape:zoom="1.4082464"
     inkscape:cx="104.82403"
     inkscape:cy="153.09766"
     inkscape:window-x="-8"
     inkscape:window-y="-8"
     inkscape:window-maximized="1"
     inkscape:current-layer="g831" /><g
     inkscape:groupmode="layer"
     id="layer1"
     inkscape:label="Layer 1"
     style="display:inline"><g
       style="clip-rule:evenodd;fill-rule:evenodd;stroke-linecap:round;stroke-linejoin:round;stroke-miterlimit:1.5"
       transform="matrix(0.99187,0,0,0.997951,2.1933217,0.94536317)"
       id="g4"><rect
         x="-2.0139999"
         y="-0.50800002"
         width="238.548"
         height="236.608"
         style="fill:#01a797;stroke:#ededed;stroke-width:10.05120182;stroke-linecap:square;stroke-linejoin:miter;stroke-miterlimit:10;stroke-dasharray:none;stroke-opacity:1;paint-order:fill markers stroke"
         id="rect2" /></g><g
       style="clip-rule:evenodd;fill-rule:evenodd;stroke-linecap:round;stroke-linejoin:round;stroke-miterlimit:1.5"
       transform="matrix(0.993841,0,0,0.993841,-2.0376985,2.6130892)"
       id="g18" /></g><g
     inkscape:groupmode="layer"
     id="layer2"
     inkscape:label="Layer 2"
     style="display:none"><flowRoot
       xml:space="preserve"
       id="flowRoot3747"
       style="font-style:normal;font-weight:normal;font-size:40px;line-height:1.25;font-family:sans-serif;letter-spacing:0px;word-spacing:0px;fill:#000000;fill-opacity:1;stroke:none"><flowRegion
         id="flowRegion3749"><rect
           id="rect3751"
           width="110.4661"
           height="58.245762"
           x="48.705509"
           y="116.49152" /></flowRegion><flowPara
         id="flowPara3753" /></flowRoot><g
       id="g894"
       transform="rotate(90,129.54661,127.23252)" /></g><g
     inkscape:groupmode="layer"
     id="layer3"
     inkscape:label="Layer 3"
     style="display:inline"><g
       style="clip-rule:evenodd;display:inline;fill-rule:evenodd;stroke-linecap:round;stroke-linejoin:round;stroke-miterlimit:1.5"
       transform="rotate(90,94.718198,74.781687)"
       id="g4581">
<g
   id="g831"
   transform="translate(26,2)"
   style="fill:#ededed;fill-opacity:1"><g
     aria-label="constr"
     transform="rotate(-90)"
     inkscape:transform-center-x="23.570936"
     inkscape:transform-center-y="33.845493"
     style="font-style:normal;font-variant:normal;font-weight:bold;font-stretch:normal;font-size:34.0447998px;line-height:1.25;font-family:'Josefin Sans';-inkscape-font-specification:'Josefin Sans Bold';letter-spacing:0px;word-spacing:0px;fill:#ededed;fill-opacity:1;stroke:none;stroke-width:0.85112047"
     id="text898"><path
       d="m -29.043085,112.35092 -0.282599,3.17508 q -1.512733,0.79792 -4.105989,0.79792 -4.288847,0 -6.599504,-2.39377 -2.294035,-2.39378 -2.294035,-5.75171 0,-3.49092 2.410399,-6.08418 2.410398,-2.60988 6.599504,-2.60988 2.044683,0 3.640533,0.465456 l -0.565197,3.391184 q -1.529356,-0.63169 -3.424428,-0.63169 -2.011436,0 -3.175076,1.42961 -1.163641,1.41299 -1.163641,3.49092 0,2.26079 1.379745,3.8234 1.379746,1.5626 3.906508,1.5626 1.479486,0 3.67378,-0.66494 z"
       style="font-style:normal;font-variant:normal;font-weight:bold;font-stretch:normal;font-family:Candara;-inkscape-font-specification:'Candara Bold';fill:#ededed;fill-opacity:1;stroke-width:0.85112047"
       id="path838" /><path
       d="m -10.441459,107.57999 q 0,4.18911 -2.576633,6.54964 -2.576632,2.36053 -6.067554,2.36053 -3.324688,0 -5.701839,-2.14443 -2.377152,-2.16104 -2.377152,-6.06755 0,-4.20573 2.593256,-6.58288 2.593257,-2.377154 6.084178,-2.377154 3.308064,0 5.668593,2.177674 2.377151,2.16104 2.377151,6.08417 z m -4.338717,0.49871 q 0,-2.4104 -1.130394,-4.0395 -1.130394,-1.64572 -2.942348,-1.64572 -1.762085,0 -2.875855,1.52936 -1.097147,1.52935 -1.097147,3.82339 0,2.4104 1.130394,4.05612 1.130394,1.62909 2.942348,1.62909 1.762085,0 2.859232,-1.52935 1.11377,-1.52936 1.11377,-3.82339 z"
       style="font-style:normal;font-variant:normal;font-weight:bold;font-stretch:normal;font-family:Candara;-inkscape-font-specification:'Candara Bold';fill:#ededed;fill-opacity:1;stroke-width:0.85112047"
       id="path840" /><path
       d="M 7.5783477,115.84184 H 3.1565134 q 0.3657156,-4.20573 0.3657156,-8.5112 0,-2.60988 -0.7813015,-3.54079 -0.7646782,-0.93091 -2.34390472,-0.93091 -1.89507188,0 -3.59066248,1.29663 0.083117,6.48314 0.083117,11.68627 h -4.4717047 q 0.2992219,-5.20313 0.2992219,-8.17873 0,-3.973 -0.8145484,-7.49717 l 4.2555999,-0.465455 0.2825985,1.762085 h 0.265975 q 2.2774109,-1.961566 5.2363828,-1.961566 2.5600093,0 4.0893656,1.213506 1.5459796,1.19689 1.5459796,4.43846 0,0.48208 -0.04987,1.29663 -0.033247,0.79793 -0.033247,1.64572 0,2.24416 0.083117,7.74652 z"
       style="font-style:normal;font-variant:normal;font-weight:bold;font-stretch:normal;font-family:Candara;-inkscape-font-specification:'Candara Bold';fill:#ededed;fill-opacity:1;stroke-width:0.85112047"
       id="path842" /><path
       d="m 22.605934,111.30364 q 0,4.98704 -7.380806,4.98704 -2.692997,0 -4.704433,-0.58182 l 0.565197,-3.27482 q 2.077929,0.74805 4.139236,0.74805 1.994812,0 2.75949,-0.33247 0.781302,-0.33246 0.781302,-1.11377 0,-1.21351 -2.792738,-2.31065 -2.443645,-0.96416 -3.557415,-1.89508 -1.529357,-1.29662 -1.529357,-3.17507 0,-2.21092 1.645721,-3.55742 1.64572,-1.346497 4.78755,-1.346497 2.942348,0 4.621315,0.515327 l -0.565197,3.29144 q -1.878448,-0.73143 -4.056118,-0.73143 -2.65975,0 -2.65975,1.36312 0,0.69819 0.565197,1.13039 0.565196,0.41559 2.310657,1.0639 2.410399,0.88105 3.507546,1.81196 1.562603,1.32987 1.562603,3.4078 z"
       style="font-style:normal;font-variant:normal;font-weight:bold;font-stretch:normal;font-family:Candara;-inkscape-font-specification:'Candara Bold';fill:#ededed;fill-opacity:1;stroke-width:0.85112047"
       id="path844" /><path
       d="m 35.455853,112.73326 -0.282599,2.95897 q -1.163641,0.4987 -2.925725,0.4987 -2.692997,0 -4.056119,-1.46286 -1.363122,-1.46286 -1.363122,-5.63534 0,-2.51014 0.03325,-5.68522 -0.847795,0 -2.294034,0.0997 l 0.116364,-3.27482 q 1.280005,0.0998 2.377152,0.0998 0.01662,-0.881047 0.132987,-4.637943 l 3.939755,-0.48208 q -0.249352,3.308064 -0.249352,5.120023 1.396369,0 4.172483,-0.13299 l -0.132987,3.30806 q -2.526763,-0.0997 -4.10599,-0.0997 -0.03325,2.21092 -0.03325,4.63794 0,2.95897 0.598443,3.973 0.598444,0.99741 2.111177,0.99741 0.914289,0 1.961566,-0.2826 z m -6.267036,-12.68368 z"
       style="font-style:normal;font-variant:normal;font-weight:bold;font-stretch:normal;font-family:Candara;-inkscape-font-specification:'Candara Bold';fill:#ededed;fill-opacity:1;stroke-width:0.85112047"
       id="path846" /><path
       d="m 48.937459,100.04958 -0.96416,3.88988 q -1.230134,-0.4987 -2.493515,-0.4987 -2.443645,0 -3.224947,2.19429 0,6.63275 0.09974,10.20679 h -4.421835 q 0.282599,-5.00365 0.282599,-8.17873 0,-3.95638 -0.831172,-7.49717 l 4.238976,-0.465455 q 0.282599,1.828575 0.282599,2.144425 h 0.265975 q 1.529356,-2.343906 4.072742,-2.343906 1.196887,0 2.692997,0.548576 z"
       style="font-style:normal;font-variant:normal;font-weight:bold;font-stretch:normal;font-family:Candara;-inkscape-font-specification:'Candara Bold';fill:#ededed;fill-opacity:1;stroke-width:0.85112047"
       id="path848" /></g><g
     aria-label="JS"
     transform="rotate(-90)"
     style="font-style:normal;font-variant:normal;font-weight:bold;font-stretch:normal;font-size:129.62036133px;line-height:1.25;font-family:'Josefin Sans';-inkscape-font-specification:'Josefin Sans Bold';letter-spacing:0px;word-spacing:0px;fill:#ededed;fill-opacity:1;stroke:none;stroke-width:3.24050689"
     id="text902"><path
       d="m -22.603665,120.6592 q -0.759495,18.86077 -0.759495,46.58232 0,21.07596 -8.670893,29.93673 -7.341778,7.59494 -22.84812,7.59494 -5.569625,0 -11.075959,-1.32911 l 1.139242,-13.60761 q 4.240509,1.89874 8.481019,1.89874 8.291146,0 12.025327,-3.6076 5.379751,-5.18988 5.379751,-19.62027 0,-28.92407 -0.949368,-47.84814 z"
       style="font-style:normal;font-variant:normal;font-weight:bold;font-stretch:normal;font-family:Candara;-inkscape-font-specification:'Candara Bold';fill:#ededed;fill-opacity:1;stroke-width:3.24050689"
       id="path833" /><path
       d="m 48.155887,180.59596 q 0,24.74685 -35.56965,24.74685 -12.08861773,0 -22.4683732,-2.91139 l 3.1012684,-14.11394 q 10.2531731,3.54431 19.3671048,3.54431 10.126591,0 14.556974,-1.96203 4.430384,-1.96202 4.430384,-6.58228 0,-4.81013 -4.177219,-8.10127 -3.607598,-2.9114 -14.620265,-7.59495 -10.0000088,-4.3038 -14.8734306,-9.36709 -6.1392456,-6.39241 -6.1392456,-15.75951 0,-10.88608 8.03798136,-17.02533 8.10127254,-6.13925 23.22786784,-6.13925 12.405073,0 20.822802,2.08861 l -2.341774,14.05065 q -8.544311,-3.10127 -18.481028,-3.10127 -14.9367217,0 -14.9367217,7.97469 0,4.24051 3.4810157,6.89874 3.037977,2.27848 13.227859,6.39241 10.822794,4.36709 16.202545,9.62026 7.151905,7.02532 7.151905,17.34179 z"
       style="font-style:normal;font-variant:normal;font-weight:bold;font-stretch:normal;font-family:Candara;-inkscape-font-specification:'Candara Bold';fill:#ededed;fill-opacity:1;stroke-width:3.24050689"
       id="path835" /></g></g>
</g></g></svg>