<?xml version="1.0" encoding="UTF-8" standalone="no"?>
<!DOCTYPE svg PUBLIC "-//W3C//DTD SVG 1.1//EN" "http://www.w3.org/Graphics/SVG/1.1/DTD/svg11.dtd">
<svg width="100%" height="100%" viewBox="0 0 237 237" version="1.1" xmlns="http://www.w3.org/2000/svg" xmlns:xlink="http://www.w3.org/1999/xlink" xml:space="preserve" xmlns:serif="http://www.serif.com/" style="fill-rule:evenodd;clip-rule:evenodd;stroke-linecap:round;stroke-linejoin:round;stroke-miterlimit:1.5;">
    <g transform="matrix(0.99187,0,0,0.997951,1.80335,0.483813)">
        <rect x="-2.014" y="-0.508" width="238.548" height="236.608" style="fill:rgb(1,167,151);"/>
    </g>
    <g transform="matrix(2.78227e-16,-0.908759,0.908759,2.78227e-16,5.43754,318.451)">
        <g transform="matrix(0.817181,0,4.02901e-32,0.817181,42.7913,20.0153)">
            <path d="M144.505,73.902L202.555,122.736L144.505,171.657L131.155,158.049L173.788,122.909L131.155,87.51L144.505,73.902Z" style="fill-rule:nonzero;"/>
        </g>
        <g transform="matrix(1,4.93038e-32,-4.93038e-32,1,1.31186,-3.55271e-15)">
            <path d="M282.395,203.868C270.509,203.868 261.638,201.012 255.781,195.299C249.925,189.586 246.996,180.528 246.996,168.126L246.996,146.249C246.996,140.335 245.676,135.885 243.034,132.899C240.393,129.914 236.001,128.421 229.857,128.421L224.431,128.421L224.431,112.143L229.857,112.143C232.958,112.143 235.599,111.813 237.781,111.152C239.963,110.492 241.743,109.473 243.121,108.095C244.499,106.717 245.489,104.951 246.092,102.798C246.695,100.645 246.996,98.075 246.996,95.089L246.996,79.931C246.996,74.017 247.671,68.821 249.02,64.342C250.37,59.863 252.48,56.131 255.351,53.145C258.222,50.16 261.882,47.906 266.332,46.384C270.782,44.863 276.136,44.102 282.395,44.102L289.629,44.102L289.629,60.294L284.203,60.294C281.447,60.294 278.964,60.624 276.753,61.284C274.543,61.945 272.634,63.021 271.026,64.514C269.418,66.007 268.184,67.974 267.322,70.414C266.461,72.854 266.031,75.883 266.031,79.5L266.031,94.573C266.031,98.879 265.672,102.554 264.954,105.597C264.236,108.64 263.131,111.181 261.638,113.219C260.145,115.258 258.25,116.837 255.954,117.956C253.657,119.076 250.958,119.865 247.858,120.325C254.001,121.014 258.566,123.411 261.552,127.516C264.538,131.622 266.031,137.924 266.031,146.421L266.031,168.298C266.031,172.03 266.461,175.131 267.322,177.6C268.184,180.069 269.418,182.05 271.026,183.542C272.634,185.035 274.543,186.098 276.753,186.729C278.964,187.361 281.447,187.677 284.203,187.677L289.629,187.677L289.629,203.868L282.395,203.868Z" style="fill-rule:nonzero;"/>
        </g>
    </g>
    <g transform="matrix(0.993841,0,0,0.993841,-0.921244,0.730567)">
        <rect x="0.422" y="-0.216" width="238.694" height="237.684" style="fill:none;stroke:black;stroke-width:16.77px;"/>
    </g>
</svg>
